<svg width="347" height="319" viewBox="0 0 347 319" fill="none" xmlns="http://www.w3.org/2000/svg">
<g clip-path="url(#clip0_617_1441)">
<rect width="347" height="318" transform="translate(0 0.638184)" fill="#03020A"/>
<g filter="url(#filter0_f_617_1441)">
<ellipse cx="501.664" cy="322.304" rx="561.745" ry="524.467" transform="rotate(-30 501.664 322.304)" fill="url(#paint0_radial_617_1441)"/>
</g>
<g style="mix-blend-mode:overlay" filter="url(#filter1_f_617_1441)">
<ellipse cx="501.664" cy="322.304" rx="561.745" ry="524.467" transform="rotate(-30 501.664 322.304)" fill="url(#paint1_radial_617_1441)"/>
</g>
<g style="mix-blend-mode:overlay">
<path d="M14.0035 303.864H6.88306V310.984H14.0035V303.864Z" fill="#DEE0FC"/>
<path d="M14.0035 281.535H6.88306V287.932H14.0035V281.535Z" fill="#DEE0FC"/>
<path d="M14.0035 259.206H6.88306V264.879H14.0035V259.206Z" fill="#DEE0FC"/>
<path d="M14.0035 236.881H6.88306V241.83H14.0035V236.881Z" fill="#DEE0FC"/>
<path d="M14.0035 214.552H6.88306V218.777H14.0035V214.552Z" fill="#DEE0FC"/>
<path d="M14.0035 192.227H6.88306V195.728H14.0035V192.227Z" fill="#DEE0FC"/>
<path d="M14.0035 169.898H6.88306V172.675H14.0035V169.898Z" fill="#DEE0FC"/>
<path d="M14.0035 146.845H6.88306V149.623H14.0035V146.845Z" fill="#DEE0FC"/>
<path d="M14.0035 123.797H6.88306V127.298H14.0035V123.797Z" fill="#DEE0FC"/>
<path d="M14.0035 100.744H6.88306V104.969H14.0035V100.744Z" fill="#DEE0FC"/>
<path d="M14.0035 77.6907H6.88306V82.6396H14.0035V77.6907Z" fill="#DEE0FC"/>
<path d="M14.0035 54.6378H6.88306V60.3106H14.0035V54.6378Z" fill="#DEE0FC"/>
<path d="M14.0035 31.5891H6.88306V37.9857H14.0035V31.5891Z" fill="#DEE0FC"/>
<path d="M14.0035 8.53613H6.88306V15.6565H14.0035V8.53613Z" fill="#DEE0FC"/>
<path d="M36.3328 303.864H29.9363V310.984H36.3328V303.864Z" fill="#DEE0FC"/>
<path d="M36.3328 281.535H29.9363V287.932H36.3328V281.535Z" fill="#DEE0FC"/>
<path d="M36.3328 259.206H29.9363V264.879H36.3328V259.206Z" fill="#DEE0FC"/>
<path d="M36.3328 236.881H29.9363V241.83H36.3328V236.881Z" fill="#DEE0FC"/>
<path d="M36.3328 214.552H29.9363V218.777H36.3328V214.552Z" fill="#DEE0FC"/>
<path d="M36.3328 192.227H29.9363V195.728H36.3328V192.227Z" fill="#DEE0FC"/>
<path d="M36.3328 169.898H29.9363V172.675H36.3328V169.898Z" fill="#DEE0FC"/>
<path d="M36.3328 146.845H29.9363V149.623H36.3328V146.845Z" fill="#DEE0FC"/>
<path d="M36.3328 123.797H29.9363V127.298H36.3328V123.797Z" fill="#DEE0FC"/>
<path d="M36.3328 100.744H29.9363V104.969H36.3328V100.744Z" fill="#DEE0FC"/>
<path d="M36.3328 77.6907H29.9363V82.6396H36.3328V77.6907Z" fill="#DEE0FC"/>
<path d="M36.3328 54.6378H29.9363V60.3106H36.3328V54.6378Z" fill="#DEE0FC"/>
<path d="M36.3328 31.5891H29.9363V37.9857H36.3328V31.5891Z" fill="#DEE0FC"/>
<path d="M36.3328 8.53613H29.9363V15.6565H36.3328V8.53613Z" fill="#DEE0FC"/>
<path d="M58.6578 303.864H52.9851V310.984H58.6578V303.864Z" fill="#DEE0FC"/>
<path d="M58.6578 281.535H52.9851V287.932H58.6578V281.535Z" fill="#DEE0FC"/>
<path d="M58.6578 259.206H52.9851V264.879H58.6578V259.206Z" fill="#DEE0FC"/>
<path d="M58.6578 236.881H52.9851V241.83H58.6578V236.881Z" fill="#DEE0FC"/>
<path d="M58.6578 214.552H52.9851V218.777H58.6578V214.552Z" fill="#DEE0FC"/>
<path d="M58.6578 192.227H52.9851V195.728H58.6578V192.227Z" fill="#DEE0FC"/>
<path d="M58.6578 169.898H52.9851V172.675H58.6578V169.898Z" fill="#DEE0FC"/>
<path d="M58.6578 146.845H52.9851V149.623H58.6578V146.845Z" fill="#DEE0FC"/>
<path d="M58.6578 123.797H52.9851V127.298H58.6578V123.797Z" fill="#DEE0FC"/>
<path d="M58.6578 100.744H52.9851V104.969H58.6578V100.744Z" fill="#DEE0FC"/>
<path d="M58.6578 77.6907H52.9851V82.6396H58.6578V77.6907Z" fill="#DEE0FC"/>
<path d="M58.6578 54.6378H52.9851V60.3106H58.6578V54.6378Z" fill="#DEE0FC"/>
<path d="M58.6578 31.5891H52.9851V37.9857H58.6578V31.5891Z" fill="#DEE0FC"/>
<path d="M58.6578 8.53613H52.9851V15.6565H58.6578V8.53613Z" fill="#DEE0FC"/>
<path d="M80.9866 303.864H76.0377V310.984H80.9866V303.864Z" fill="#DEE0FC"/>
<path d="M80.9866 281.535H76.0377V287.932H80.9866V281.535Z" fill="#DEE0FC"/>
<path d="M80.9866 259.206H76.0377V264.879H80.9866V259.206Z" fill="#DEE0FC"/>
<path d="M80.9866 236.881H76.0377V241.83H80.9866V236.881Z" fill="#DEE0FC"/>
<path d="M80.9866 214.552H76.0377V218.777H80.9866V214.552Z" fill="#DEE0FC"/>
<path d="M80.9866 192.227H76.0377V195.728H80.9866V192.227Z" fill="#DEE0FC"/>
<path d="M80.9866 169.898H76.0377V172.675H80.9866V169.898Z" fill="#DEE0FC"/>
<path d="M80.9866 146.845H76.0377V149.623H80.9866V146.845Z" fill="#DEE0FC"/>
<path d="M80.9866 123.797H76.0377V127.298H80.9866V123.797Z" fill="#DEE0FC"/>
<path d="M80.9866 100.744H76.0377V104.969H80.9866V100.744Z" fill="#DEE0FC"/>
<path d="M80.9866 77.6907H76.0377V82.6396H80.9866V77.6907Z" fill="#DEE0FC"/>
<path d="M80.9866 54.6378H76.0377V60.3106H80.9866V54.6378Z" fill="#DEE0FC"/>
<path d="M80.9866 31.5891H76.0377V37.9857H80.9866V31.5891Z" fill="#DEE0FC"/>
<path d="M80.9866 8.53613H76.0377V15.6565H80.9866V8.53613Z" fill="#DEE0FC"/>
<path d="M103.316 303.864H99.0906V310.984H103.316V303.864Z" fill="#DEE0FC"/>
<path d="M103.316 281.535H99.0906V287.932H103.316V281.535Z" fill="#DEE0FC"/>
<path d="M103.316 259.206H99.0906V264.879H103.316V259.206Z" fill="#DEE0FC"/>
<path d="M103.316 236.881H99.0906V241.83H103.316V236.881Z" fill="#DEE0FC"/>
<path d="M103.316 214.552H99.0906V218.777H103.316V214.552Z" fill="#DEE0FC"/>
<path d="M103.316 192.227H99.0906V195.728H103.316V192.227Z" fill="#DEE0FC"/>
<path d="M103.316 169.898H99.0906V172.675H103.316V169.898Z" fill="#DEE0FC"/>
<path d="M103.316 146.845H99.0906V149.623H103.316V146.845Z" fill="#DEE0FC"/>
<path d="M103.316 123.797H99.0906V127.298H103.316V123.797Z" fill="#DEE0FC"/>
<path d="M103.316 100.744H99.0906V104.969H103.316V100.744Z" fill="#DEE0FC"/>
<path d="M103.316 77.6907H99.0906V82.6396H103.316V77.6907Z" fill="#DEE0FC"/>
<path d="M103.316 54.6378H99.0906V60.3106H103.316V54.6378Z" fill="#DEE0FC"/>
<path d="M103.316 31.5891H99.0906V37.9857H103.316V31.5891Z" fill="#DEE0FC"/>
<path d="M103.316 8.53613H99.0906V15.6565H103.316V8.53613Z" fill="#DEE0FC"/>
<path d="M125.645 303.864H122.144V310.984H125.645V303.864Z" fill="#DEE0FC"/>
<path d="M125.645 281.535H122.144V287.932H125.645V281.535Z" fill="#DEE0FC"/>
<path d="M125.645 259.206H122.144V264.879H125.645V259.206Z" fill="#DEE0FC"/>
<path d="M125.645 236.881H122.144V241.83H125.645V236.881Z" fill="#DEE0FC"/>
<path d="M125.645 214.552H122.144V218.777H125.645V214.552Z" fill="#DEE0FC"/>
<path d="M125.645 192.227H122.144V195.728H125.645V192.227Z" fill="#DEE0FC"/>
<path d="M125.645 169.898H122.144V172.675H125.645V169.898Z" fill="#DEE0FC"/>
<path d="M125.645 146.845H122.144V149.623H125.645V146.845Z" fill="#DEE0FC"/>
<path d="M125.645 123.797H122.144V127.298H125.645V123.797Z" fill="#DEE0FC"/>
<path d="M125.645 100.744H122.144V104.969H125.645V100.744Z" fill="#DEE0FC"/>
<path d="M125.645 77.6907H122.144V82.6396H125.645V77.6907Z" fill="#DEE0FC"/>
<path d="M125.645 54.6378H122.144V60.3106H125.645V54.6378Z" fill="#DEE0FC"/>
<path d="M125.645 31.5891H122.144V37.9857H125.645V31.5891Z" fill="#DEE0FC"/>
<path d="M125.645 8.53613H122.144V15.6565H125.645V8.53613Z" fill="#DEE0FC"/>
<path d="M147.97 303.864H145.192V310.984H147.97V303.864Z" fill="#DEE0FC"/>
<path d="M147.97 281.535H145.192V287.932H147.97V281.535Z" fill="#DEE0FC"/>
<path d="M147.97 259.206H145.192V264.879H147.97V259.206Z" fill="#DEE0FC"/>
<path d="M147.97 236.881H145.192V241.83H147.97V236.881Z" fill="#DEE0FC"/>
<path d="M147.97 214.552H145.192V218.777H147.97V214.552Z" fill="#DEE0FC"/>
<path d="M147.97 192.227H145.192V195.728H147.97V192.227Z" fill="#DEE0FC"/>
<path d="M147.97 169.898H145.192V172.675H147.97V169.898Z" fill="#DEE0FC"/>
<path d="M147.97 146.845H145.192V149.623H147.97V146.845Z" fill="#DEE0FC"/>
<path d="M147.97 123.797H145.192V127.298H147.97V123.797Z" fill="#DEE0FC"/>
<path d="M147.97 100.744H145.192V104.969H147.97V100.744Z" fill="#DEE0FC"/>
<path d="M147.97 77.6907H145.192V82.6396H147.97V77.6907Z" fill="#DEE0FC"/>
<path d="M147.97 54.6378H145.192V60.3106H147.97V54.6378Z" fill="#DEE0FC"/>
<path d="M147.97 31.5891H145.192V37.9857H147.97V31.5891Z" fill="#DEE0FC"/>
<path d="M147.97 8.53613H145.192V15.6565H147.97V8.53613Z" fill="#DEE0FC"/>
</g>
<g style="mix-blend-mode:overlay">
<path d="M346.619 303.864H355.187V310.984H346.619V303.864Z" fill="#DEE0FC"/>
<path d="M346.619 281.535H355.187V287.932H346.619V281.535Z" fill="#DEE0FC"/>
<path d="M346.619 259.206H355.187V264.879H346.619V259.206Z" fill="#DEE0FC"/>
<path d="M346.619 236.881H355.187V241.83H346.619V236.881Z" fill="#DEE0FC"/>
<path d="M346.619 214.552H355.187V218.777H346.619V214.552Z" fill="#DEE0FC"/>
<path d="M346.619 192.227H355.187V195.728H346.619V192.227Z" fill="#DEE0FC"/>
<path d="M346.619 169.898H355.187V172.675H346.619V169.898Z" fill="#DEE0FC"/>
<path d="M346.619 146.845H355.187V149.623H346.619V146.845Z" fill="#DEE0FC"/>
<path d="M346.619 123.797H355.187V127.298H346.619V123.797Z" fill="#DEE0FC"/>
<path d="M346.619 100.744H355.187V104.969H346.619V100.744Z" fill="#DEE0FC"/>
<path d="M346.619 77.6907H355.187V82.6396H346.619V77.6907Z" fill="#DEE0FC"/>
<path d="M346.619 54.6378H355.187V60.3106H346.619V54.6378Z" fill="#DEE0FC"/>
<path d="M346.619 31.5891H355.187V37.9857H346.619V31.5891Z" fill="#DEE0FC"/>
<path d="M346.619 8.53613H355.187V15.6565H346.619V8.53613Z" fill="#DEE0FC"/>
<path d="M324.294 303.864H332.138V310.984H324.294V303.864Z" fill="#DEE0FC"/>
<path d="M324.294 281.535H332.138V287.932H324.294V281.535Z" fill="#DEE0FC"/>
<path d="M324.294 259.206H332.138V264.879H324.294V259.206Z" fill="#DEE0FC"/>
<path d="M324.294 236.881H332.138V241.83H324.294V236.881Z" fill="#DEE0FC"/>
<path d="M324.294 214.552H332.138V218.777H324.294V214.552Z" fill="#DEE0FC"/>
<path d="M324.294 192.227H332.138V195.728H324.294V192.227Z" fill="#DEE0FC"/>
<path d="M324.294 169.898H332.138V172.675H324.294V169.898Z" fill="#DEE0FC"/>
<path d="M324.294 146.845H332.138V149.623H324.294V146.845Z" fill="#DEE0FC"/>
<path d="M324.294 123.797H332.138V127.298H324.294V123.797Z" fill="#DEE0FC"/>
<path d="M324.294 100.744H332.138V104.969H324.294V100.744Z" fill="#DEE0FC"/>
<path d="M324.294 77.6907H332.138V82.6396H324.294V77.6907Z" fill="#DEE0FC"/>
<path d="M324.294 54.6378H332.138V60.3106H324.294V54.6378Z" fill="#DEE0FC"/>
<path d="M324.294 31.5891H332.138V37.9857H324.294V31.5891Z" fill="#DEE0FC"/>
<path d="M324.294 8.53613H332.138V15.6565H324.294V8.53613Z" fill="#DEE0FC"/>
<path d="M301.965 303.864H309.086V310.984H301.965V303.864Z" fill="#DEE0FC"/>
<path d="M301.965 281.535H309.086V287.932H301.965V281.535Z" fill="#DEE0FC"/>
<path d="M301.965 259.206H309.086V264.879H301.965V259.206Z" fill="#DEE0FC"/>
<path d="M301.965 236.881H309.086V241.83H301.965V236.881Z" fill="#DEE0FC"/>
<path d="M301.965 214.552H309.086V218.777H301.965V214.552Z" fill="#DEE0FC"/>
<path d="M301.965 192.227H309.086V195.728H301.965V192.227Z" fill="#DEE0FC"/>
<path d="M301.965 169.898H309.086V172.675H301.965V169.898Z" fill="#DEE0FC"/>
<path d="M301.965 146.845H309.086V149.623H301.965V146.845Z" fill="#DEE0FC"/>
<path d="M301.965 123.797H309.086V127.298H301.965V123.797Z" fill="#DEE0FC"/>
<path d="M301.965 100.744H309.086V104.969H301.965V100.744Z" fill="#DEE0FC"/>
<path d="M301.965 77.6907H309.086V82.6396H301.965V77.6907Z" fill="#DEE0FC"/>
<path d="M301.965 54.6378H309.086V60.3106H301.965V54.6378Z" fill="#DEE0FC"/>
<path d="M301.965 31.5891H309.086V37.9857H301.965V31.5891Z" fill="#DEE0FC"/>
<path d="M301.965 8.53613H309.086V15.6565H301.965V8.53613Z" fill="#DEE0FC"/>
<path d="M279.636 303.864H286.032V310.984H279.636V303.864Z" fill="#DEE0FC"/>
<path d="M279.636 281.535H286.032V287.932H279.636V281.535Z" fill="#DEE0FC"/>
<path d="M279.636 259.206H286.032V264.879H279.636V259.206Z" fill="#DEE0FC"/>
<path d="M279.636 236.881H286.032V241.83H279.636V236.881Z" fill="#DEE0FC"/>
<path d="M279.636 214.552H286.032V218.777H279.636V214.552Z" fill="#DEE0FC"/>
<path d="M279.636 192.227H286.032V195.728H279.636V192.227Z" fill="#DEE0FC"/>
<path d="M279.636 169.898H286.032V172.675H279.636V169.898Z" fill="#DEE0FC"/>
<path d="M279.636 146.845H286.032V149.623H279.636V146.845Z" fill="#DEE0FC"/>
<path d="M279.636 123.797H286.032V127.298H279.636V123.797Z" fill="#DEE0FC"/>
<path d="M279.636 100.744H286.032V104.969H279.636V100.744Z" fill="#DEE0FC"/>
<path d="M279.636 77.6907H286.032V82.6396H279.636V77.6907Z" fill="#DEE0FC"/>
<path d="M279.636 54.6378H286.032V60.3106H279.636V54.6378Z" fill="#DEE0FC"/>
<path d="M279.636 31.5891H286.032V37.9857H279.636V31.5891Z" fill="#DEE0FC"/>
<path d="M279.636 8.53613H286.032V15.6565H279.636V8.53613Z" fill="#DEE0FC"/>
<path d="M257.311 303.864H262.984V310.984H257.311V303.864Z" fill="#DEE0FC"/>
<path d="M257.311 281.535H262.984V287.932H257.311V281.535Z" fill="#DEE0FC"/>
<path d="M257.311 259.206H262.984V264.879H257.311V259.206Z" fill="#DEE0FC"/>
<path d="M257.311 236.881H262.984V241.83H257.311V236.881Z" fill="#DEE0FC"/>
<path d="M257.311 214.552H262.984V218.777H257.311V214.552Z" fill="#DEE0FC"/>
<path d="M257.311 192.227H262.984V195.728H257.311V192.227Z" fill="#DEE0FC"/>
<path d="M257.311 169.898H262.984V172.675H257.311V169.898Z" fill="#DEE0FC"/>
<path d="M257.311 146.845H262.984V149.623H257.311V146.845Z" fill="#DEE0FC"/>
<path d="M257.311 123.797H262.984V127.298H257.311V123.797Z" fill="#DEE0FC"/>
<path d="M257.311 100.744H262.984V104.969H257.311V100.744Z" fill="#DEE0FC"/>
<path d="M257.311 77.6907H262.984V82.6396H257.311V77.6907Z" fill="#DEE0FC"/>
<path d="M257.311 54.6378H262.984V60.3106H257.311V54.6378Z" fill="#DEE0FC"/>
<path d="M257.311 31.5891H262.984V37.9857H257.311V31.5891Z" fill="#DEE0FC"/>
<path d="M257.311 8.53613H262.984V15.6565H257.311V8.53613Z" fill="#DEE0FC"/>
<path d="M234.982 303.864H239.931V310.984H234.982V303.864Z" fill="#DEE0FC"/>
<path d="M234.982 281.535H239.931V287.932H234.982V281.535Z" fill="#DEE0FC"/>
<path d="M234.982 259.206H239.931V264.879H234.982V259.206Z" fill="#DEE0FC"/>
<path d="M234.982 236.881H239.931V241.83H234.982V236.881Z" fill="#DEE0FC"/>
<path d="M234.982 214.552H239.931V218.777H234.982V214.552Z" fill="#DEE0FC"/>
<path d="M234.982 192.227H239.931V195.728H234.982V192.227Z" fill="#DEE0FC"/>
<path d="M234.982 169.898H239.931V172.675H234.982V169.898Z" fill="#DEE0FC"/>
<path d="M234.982 146.845H239.931V149.623H234.982V146.845Z" fill="#DEE0FC"/>
<path d="M234.982 123.797H239.931V127.298H234.982V123.797Z" fill="#DEE0FC"/>
<path d="M234.982 100.744H239.931V104.969H234.982V100.744Z" fill="#DEE0FC"/>
<path d="M234.982 77.6907H239.931V82.6396H234.982V77.6907Z" fill="#DEE0FC"/>
<path d="M234.982 54.6378H239.931V60.3106H234.982V54.6378Z" fill="#DEE0FC"/>
<path d="M234.982 31.5891H239.931V37.9857H234.982V31.5891Z" fill="#DEE0FC"/>
<path d="M234.982 8.53613H239.931V15.6565H234.982V8.53613Z" fill="#DEE0FC"/>
<path d="M212.653 303.864H216.878V310.984H212.653V303.864Z" fill="#DEE0FC"/>
<path d="M212.653 281.535H216.878V287.932H212.653V281.535Z" fill="#DEE0FC"/>
<path d="M212.653 259.206H216.878V264.879H212.653V259.206Z" fill="#DEE0FC"/>
<path d="M212.653 236.881H216.878V241.83H212.653V236.881Z" fill="#DEE0FC"/>
<path d="M212.653 214.552H216.878V218.777H212.653V214.552Z" fill="#DEE0FC"/>
<path d="M212.653 192.227H216.878V195.728H212.653V192.227Z" fill="#DEE0FC"/>
<path d="M212.653 169.898H216.878V172.675H212.653V169.898Z" fill="#DEE0FC"/>
<path d="M212.653 146.845H216.878V149.623H212.653V146.845Z" fill="#DEE0FC"/>
<path d="M212.653 123.797H216.878V127.298H212.653V123.797Z" fill="#DEE0FC"/>
<path d="M212.653 100.744H216.878V104.969H212.653V100.744Z" fill="#DEE0FC"/>
<path d="M212.653 77.6907H216.878V82.6396H212.653V77.6907Z" fill="#DEE0FC"/>
<path d="M212.653 54.6378H216.878V60.3106H212.653V54.6378Z" fill="#DEE0FC"/>
<path d="M212.653 31.5891H216.878V37.9857H212.653V31.5891Z" fill="#DEE0FC"/>
<path d="M212.653 8.53613H216.878V15.6565H212.653V8.53613Z" fill="#DEE0FC"/>
<path d="M190.324 303.864H193.825V310.984H190.324V303.864Z" fill="#DEE0FC"/>
<path d="M190.324 281.535H193.825V287.932H190.324V281.535Z" fill="#DEE0FC"/>
<path d="M190.324 259.206H193.825V264.879H190.324V259.206Z" fill="#DEE0FC"/>
<path d="M190.324 236.881H193.825V241.83H190.324V236.881Z" fill="#DEE0FC"/>
<path d="M190.324 214.552H193.825V218.777H190.324V214.552Z" fill="#DEE0FC"/>
<path d="M190.324 192.227H193.825V195.728H190.324V192.227Z" fill="#DEE0FC"/>
<path d="M190.324 169.898H193.825V172.675H190.324V169.898Z" fill="#DEE0FC"/>
<path d="M190.324 146.845H193.825V149.623H190.324V146.845Z" fill="#DEE0FC"/>
<path d="M190.324 123.797H193.825V127.298H190.324V123.797Z" fill="#DEE0FC"/>
<path d="M190.324 100.744H193.825V104.969H190.324V100.744Z" fill="#DEE0FC"/>
<path d="M190.324 77.6907H193.825V82.6396H190.324V77.6907Z" fill="#DEE0FC"/>
<path d="M190.324 54.6378H193.825V60.3106H190.324V54.6378Z" fill="#DEE0FC"/>
<path d="M190.324 31.5891H193.825V37.9857H190.324V31.5891Z" fill="#DEE0FC"/>
<path d="M190.324 8.53613H193.825V15.6565H190.324V8.53613Z" fill="#DEE0FC"/>
<path d="M167.999 303.864H170.777V310.984H167.999V303.864Z" fill="#DEE0FC"/>
<path d="M167.999 281.535H170.777V287.932H167.999V281.535Z" fill="#DEE0FC"/>
<path d="M167.999 259.206H170.777V264.879H167.999V259.206Z" fill="#DEE0FC"/>
<path d="M167.999 236.881H170.777V241.83H167.999V236.881Z" fill="#DEE0FC"/>
<path d="M167.999 214.552H170.777V218.777H167.999V214.552Z" fill="#DEE0FC"/>
<path d="M167.999 192.227H170.777V195.728H167.999V192.227Z" fill="#DEE0FC"/>
<path d="M167.999 169.898H170.777V172.675H167.999V169.898Z" fill="#DEE0FC"/>
<path d="M167.999 146.845H170.777V149.623H167.999V146.845Z" fill="#DEE0FC"/>
<path d="M167.999 123.797H170.777V127.298H167.999V123.797Z" fill="#DEE0FC"/>
<path d="M167.999 100.744H170.777V104.969H167.999V100.744Z" fill="#DEE0FC"/>
<path d="M167.999 77.6907H170.777V82.6396H167.999V77.6907Z" fill="#DEE0FC"/>
<path d="M167.999 54.6378H170.777V60.3106H167.999V54.6378Z" fill="#DEE0FC"/>
<path d="M167.999 31.5891H170.777V37.9857H167.999V31.5891Z" fill="#DEE0FC"/>
<path d="M167.999 8.53613H170.777V15.6565H167.999V8.53613Z" fill="#DEE0FC"/>
</g>
<path fill-rule="evenodd" clip-rule="evenodd" d="M78.558 148.174C76.4157 148.174 75.8641 147.622 75.8641 145.48C75.8641 147.622 75.3125 148.174 73.1701 148.174C75.3125 148.174 75.8641 148.726 75.8641 150.868C75.8641 148.726 76.4157 148.174 78.558 148.174ZM81.5255 147.648C81.5255 152.57 82.7912 153.835 87.713 153.835C82.7912 153.835 81.5255 155.101 81.5255 160.023C81.5255 155.101 80.2598 153.835 75.338 153.835C80.2598 153.835 81.5255 152.57 81.5255 147.648ZM292.453 161.387C291.833 161.015 291.149 160.822 290.396 160.822H276.798C276.636 160.822 276.503 160.771 276.4 160.668C276.298 160.566 276.247 160.446 276.247 160.305V155.952C276.247 155.793 276.298 155.661 276.4 155.558C276.499 155.456 276.631 155.404 276.798 155.404H294.505C294.505 153.369 292.855 151.723 290.824 151.723H278.902L276.247 155.404H272.595V160.424C272.595 161.177 272.779 161.861 273.146 162.481C273.51 163.101 274.002 163.597 274.622 163.969C275.242 164.346 275.926 164.534 276.678 164.534H290.246C290.409 164.534 290.546 164.585 290.657 164.688C290.768 164.786 290.824 164.91 290.824 165.051H290.854V169.404C290.854 169.562 290.802 169.695 290.7 169.798C290.601 169.9 290.469 169.952 290.302 169.952H272.595C272.595 171.987 274.245 173.633 276.276 173.633H288.198L290.854 169.952H294.505V164.931C294.505 164.179 294.317 163.499 293.941 162.879C293.565 162.259 293.069 161.763 292.449 161.387H292.453ZM250.872 172.398V151.727H254.524V168.489L268.61 151.727H273.442L255.409 173.193C255.174 173.471 254.828 173.633 254.464 173.633H252.108C251.424 173.633 250.872 173.082 250.872 172.398ZM221.487 152.279C222.107 152.642 222.603 153.138 222.979 153.767C223.356 154.395 223.544 155.084 223.544 155.836V169.524C223.544 170.272 223.351 170.965 222.979 171.594C222.603 172.222 222.107 172.718 221.487 173.082C220.867 173.45 220.183 173.633 219.434 173.633H201.637V155.413H205.255L207.915 151.727H219.434C220.183 151.727 220.867 151.911 221.487 152.279ZM219.691 169.802C219.802 169.695 219.858 169.563 219.858 169.404V155.956C219.858 155.794 219.802 155.665 219.691 155.563C219.58 155.46 219.443 155.409 219.281 155.409H205.832C205.67 155.409 205.533 155.46 205.422 155.563C205.311 155.665 205.255 155.798 205.255 155.956V169.404C205.255 169.567 205.311 169.699 205.422 169.802C205.533 169.9 205.67 169.952 205.832 169.952H219.281C219.443 169.952 219.58 169.9 219.691 169.802ZM230.847 155.563C230.745 155.665 230.694 155.798 230.694 155.956H230.689V164.585L233.319 160.822H243.894V164.624H231.241C231.074 164.624 230.942 164.675 230.843 164.777C230.741 164.88 230.689 165.013 230.689 165.171V173.595L233.319 169.952H247.122V173.633H227.012V155.409H230.668L233.323 151.727H247.127V155.409H231.245C231.078 155.409 230.946 155.46 230.847 155.563ZM84.4505 173.634L66.4182 152.168C66.183 151.89 65.8366 151.727 65.4732 151.727H63.117C62.4328 151.727 61.8812 152.279 61.8812 152.963V173.634H65.533V168.314C65.533 168.156 65.5843 168.024 65.687 167.921C65.7853 167.818 65.9179 167.767 66.0846 167.767H74.6924L79.6228 173.634H84.4505ZM68.1885 164.624L65.533 167.481V156.867L72.0498 164.624H68.1885ZM53 151.727V173.634H56.6219V151.727H53ZM112.869 153.81C112.493 153.194 111.997 152.698 111.377 152.322C110.761 151.946 110.077 151.758 109.325 151.758H97.8005L95.1622 155.414H91.5275V173.634H95.1793V166.549C95.1793 166.386 95.2306 166.254 95.3332 166.155C95.4358 166.048 95.5684 165.997 95.7352 165.997L109.32 165.967C110.073 165.967 110.757 165.783 111.373 165.42C111.993 165.052 112.489 164.556 112.865 163.927C113.242 163.299 113.43 162.619 113.43 161.888V155.867C113.43 155.114 113.242 154.43 112.865 153.81H112.869ZM109.752 161.738C109.752 161.901 109.697 162.033 109.585 162.131C109.47 162.234 109.333 162.285 109.175 162.285H98.6301L95.1793 165.997V155.957C95.1793 155.816 95.2349 155.687 95.3461 155.576C95.4572 155.465 95.5812 155.409 95.7266 155.409H109.175C109.333 155.409 109.47 155.465 109.585 155.576C109.697 155.687 109.752 155.816 109.752 155.957V161.738ZM136.875 152.275C137.491 152.638 137.987 153.139 138.364 153.767C138.74 154.396 138.928 155.084 138.928 155.837V173.634H135.246V166.116H121.234C121.067 166.116 120.934 166.168 120.832 166.275C120.725 166.377 120.673 166.51 120.673 166.677V173.634H117.022V155.837C117.022 155.691 117.03 155.55 117.043 155.413H120.661L123.316 151.727H134.819C135.571 151.727 136.255 151.911 136.875 152.275ZM124.069 162.469H135.246V155.956C135.246 155.794 135.191 155.661 135.08 155.559C134.968 155.46 134.832 155.409 134.669 155.409H121.221C121.08 155.409 120.951 155.46 120.84 155.559C120.729 155.661 120.673 155.794 120.673 155.956V166.116H120.678L124.069 162.469ZM163.464 165.42C164.084 165.052 164.58 164.556 164.957 163.927C165.329 163.299 165.517 162.619 165.517 161.888V155.867C165.517 155.114 165.329 154.43 164.957 153.81C164.58 153.194 164.084 152.698 163.464 152.322C162.844 151.946 162.16 151.758 161.412 151.758H149.888L147.249 155.414H143.61V173.634H147.262V166.553C147.262 166.39 147.313 166.254 147.42 166.151C147.519 166.048 147.651 165.997 147.814 165.997H147.822L154.916 165.98L161.318 173.634H165.427V172.783L159.684 165.971H161.412C162.16 165.967 162.844 165.783 163.464 165.42ZM150.704 162.285L147.262 165.988V161.824H147.266C147.262 161.798 147.262 161.768 147.262 161.738V155.957C147.262 155.816 147.318 155.687 147.429 155.576C147.54 155.465 147.668 155.409 147.81 155.409H161.258C161.42 155.409 161.557 155.465 161.668 155.576C161.78 155.687 161.835 155.816 161.835 155.957V161.738C161.835 161.901 161.78 162.033 161.668 162.131C161.557 162.234 161.42 162.285 161.258 162.285H150.704ZM189.843 152.275C190.459 152.638 190.955 153.139 191.332 153.767C191.708 154.396 191.896 155.084 191.896 155.837V173.634H188.214V166.116H174.202C174.035 166.116 173.898 166.168 173.8 166.27C173.693 166.373 173.641 166.51 173.641 166.672V173.634H169.99V155.837C169.99 155.691 169.998 155.55 170.011 155.413H173.629L176.288 151.727H187.787C188.539 151.727 189.223 151.911 189.843 152.275ZM177.037 162.469H188.214V155.956C188.214 155.794 188.159 155.661 188.048 155.559C187.936 155.46 187.8 155.409 187.637 155.409H174.189C174.048 155.409 173.919 155.46 173.808 155.559C173.697 155.661 173.641 155.794 173.641 155.956V166.116H173.646L177.037 162.469Z" fill="white"/>
</g>
<defs>
<filter id="filter0_f_617_1441" x="-148.292" y="-308.988" width="1299.91" height="1262.59" filterUnits="userSpaceOnUse" color-interpolation-filters="sRGB">
<feFlood flood-opacity="0" result="BackgroundImageFix"/>
<feBlend mode="normal" in="SourceGraphic" in2="BackgroundImageFix" result="shape"/>
<feGaussianBlur stdDeviation="48.5939" result="effect1_foregroundBlur_617_1441"/>
</filter>
<filter id="filter1_f_617_1441" x="-148.292" y="-308.988" width="1299.91" height="1262.59" filterUnits="userSpaceOnUse" color-interpolation-filters="sRGB">
<feFlood flood-opacity="0" result="BackgroundImageFix"/>
<feBlend mode="normal" in="SourceGraphic" in2="BackgroundImageFix" result="shape"/>
<feGaussianBlur stdDeviation="48.5939" result="effect1_foregroundBlur_617_1441"/>
</filter>
<radialGradient id="paint0_radial_617_1441" cx="0" cy="0" r="1" gradientUnits="userSpaceOnUse" gradientTransform="translate(501.664 322.304) rotate(90) scale(524.467 561.745)">
<stop stop-color="#CEC9F5"/>
<stop offset="0.34375" stop-color="#9B70EE"/>
<stop offset="0.75" stop-color="#422288"/>
<stop offset="1" stop-color="#03020A"/>
</radialGradient>
<radialGradient id="paint1_radial_617_1441" cx="0" cy="0" r="1" gradientUnits="userSpaceOnUse" gradientTransform="translate(501.664 322.304) rotate(90) scale(524.467 561.745)">
<stop stop-color="#CEC9F5"/>
<stop offset="0.34375" stop-color="#9B70EE"/>
<stop offset="0.75" stop-color="#422288"/>
<stop offset="1" stop-color="#03020A"/>
</radialGradient>
<clipPath id="clip0_617_1441">
<rect width="347" height="318" fill="white" transform="translate(0 0.638184)"/>
</clipPath>
</defs>
</svg>
