<svg width="234" height="74" viewBox="0 0 234 74" fill="none" xmlns="http://www.w3.org/2000/svg">
<path d="M1.49648 11.6382V4.63818H5.90648V5.61818H2.57648V7.62818H5.62648V8.60818H2.57648V10.6582H5.95648V11.6382H1.49648ZM9.56242 11.6382L7.61242 4.63818H8.73242L10.4324 10.9582H10.5624L12.2524 4.63818H13.3724L11.4324 11.6382H9.56242ZM15.3738 11.6382V4.63818H19.7838V5.61818H16.4538V7.62818H19.5038V8.60818H16.4538V10.6582H19.8338V11.6382H15.3738ZM22.0098 11.6382V4.63818H24.0898L25.9898 10.9182H26.1498V4.63818H27.2198V11.6382H25.1398L23.2398 5.34818H23.0798V11.6382H22.0098ZM31.3997 11.6382V5.61818H29.2497V4.63818H34.6297V5.61818H32.4797V11.6382H31.3997ZM38.9956 11.7782C38.1356 11.7782 37.4523 11.5382 36.9456 11.0582C36.439 10.5715 36.1856 9.87152 36.1856 8.95818V7.31818C36.1856 6.40485 36.439 5.70818 36.9456 5.22818C37.4523 4.74152 38.1356 4.49818 38.9956 4.49818C39.8556 4.49818 40.539 4.74152 41.0456 5.22818C41.559 5.70818 41.8156 6.40485 41.8156 7.31818V8.95818C41.8156 9.87152 41.559 10.5715 41.0456 11.0582C40.539 11.5382 39.8556 11.7782 38.9956 11.7782ZM38.9956 10.8082C39.549 10.8082 39.9756 10.6482 40.2756 10.3282C40.5756 10.0015 40.7256 9.55818 40.7256 8.99818V7.27818C40.7256 6.71818 40.5756 6.27818 40.2756 5.95818C39.9756 5.63152 39.549 5.46818 38.9956 5.46818C38.4556 5.46818 38.0323 5.63152 37.7256 5.95818C37.419 6.27818 37.2656 6.71818 37.2656 7.27818V8.99818C37.2656 9.55818 37.419 10.0015 37.7256 10.3282C38.0323 10.6482 38.4556 10.8082 38.9956 10.8082ZM1.23648 27.6382V26.6782H2.17648V21.5982H1.23648V20.6382H4.03648C4.96981 20.6382 5.68315 20.8748 6.17648 21.3482C6.67648 21.8215 6.92648 22.5349 6.92648 23.4882V24.7982C6.92648 25.7515 6.67648 26.4649 6.17648 26.9382C5.68315 27.4049 4.96981 27.6382 4.03648 27.6382H1.23648ZM3.26648 26.6582H4.04648C4.65315 26.6582 5.10315 26.5049 5.39648 26.1982C5.68981 25.8915 5.83648 25.4349 5.83648 24.8282V23.4482C5.83648 22.8348 5.68981 22.3782 5.39648 22.0782C5.10315 21.7782 4.65315 21.6282 4.04648 21.6282H3.26648V26.6582ZM8.59875 27.6382L10.5987 20.6382H12.4987L14.4887 27.6382H13.3787L12.9187 25.9882H10.1787L9.71875 27.6382H8.59875ZM10.4487 24.9882H12.6487L11.6287 21.3082H11.4687L10.4487 24.9882ZM17.4637 27.6382V21.6182H15.3137V20.6382H20.6937V21.6182H18.5437V27.6382H17.4637ZM21.5093 27.6382L23.5093 20.6382H25.4093L27.3993 27.6382H26.2893L25.8293 25.9882H23.0893L22.6293 27.6382H21.5093ZM23.3593 24.9882H25.5593L24.5393 21.3082H24.3793L23.3593 24.9882ZM1.49648 43.6382V36.6382H2.57648V39.6382H5.51648V36.6382H6.59648V43.6382H5.51648V40.6182H2.57648V43.6382H1.49648ZM11.739 43.7782C10.879 43.7782 10.1956 43.5382 9.68898 43.0582C9.18231 42.5715 8.92898 41.8715 8.92898 40.9582V39.3182C8.92898 38.4049 9.18231 37.7082 9.68898 37.2282C10.1956 36.7415 10.879 36.4982 11.739 36.4982C12.599 36.4982 13.2823 36.7415 13.789 37.2282C14.3023 37.7082 14.559 38.4049 14.559 39.3182V40.9582C14.559 41.8715 14.3023 42.5715 13.789 43.0582C13.2823 43.5382 12.599 43.7782 11.739 43.7782ZM11.739 42.8082C12.2923 42.8082 12.719 42.6482 13.019 42.3282C13.319 42.0015 13.469 41.5582 13.469 40.9982V39.2782C13.469 38.7182 13.319 38.2782 13.019 37.9582C12.719 37.6315 12.2923 37.4682 11.739 37.4682C11.199 37.4682 10.7756 37.6315 10.469 37.9582C10.1623 38.2782 10.009 38.7182 10.009 39.2782V40.9982C10.009 41.5582 10.1623 42.0015 10.469 42.3282C10.7756 42.6482 11.199 42.8082 11.739 42.8082ZM16.8875 43.6382V36.6382H19.8275C20.2608 36.6382 20.6408 36.7148 20.9675 36.8682C21.3008 37.0148 21.5575 37.2282 21.7375 37.5082C21.9242 37.7882 22.0175 38.1215 22.0175 38.5082V38.6182C22.0175 39.0582 21.9108 39.4115 21.6975 39.6782C21.4908 39.9382 21.2375 40.1215 20.9375 40.2282V40.3882C21.1908 40.4015 21.3942 40.4882 21.5475 40.6482C21.7008 40.8015 21.7775 41.0249 21.7775 41.3182V43.6382H20.6875V41.4682C20.6875 41.2882 20.6408 41.1449 20.5475 41.0382C20.4542 40.9315 20.3042 40.8782 20.0975 40.8782H17.9675V43.6382H16.8875ZM17.9675 39.8982H19.7075C20.0942 39.8982 20.3942 39.8015 20.6075 39.6082C20.8208 39.4082 20.9275 39.1382 20.9275 38.7982V38.7182C20.9275 38.3782 20.8208 38.1115 20.6075 37.9182C20.4008 37.7182 20.1008 37.6182 19.7075 37.6182H17.9675V39.8982ZM23.7359 43.6382L25.7359 36.6382H27.6359L29.6259 43.6382H28.5159L28.0559 41.9882H25.3159L24.8559 43.6382H23.7359ZM25.5859 40.9882H27.7859L26.7659 37.3082H26.6059L25.5859 40.9882Z" fill="#202024"/>
<path d="M130.541 11.6382V4.63818H131.861V11.6382H130.541ZM133.748 11.6382L135.588 4.63818H137.888L139.728 11.6382H138.368L137.988 10.0982H135.488L135.108 11.6382H133.748ZM135.798 8.87818H137.678L136.828 5.46818H136.648L135.798 8.87818ZM145.087 11.6382V4.63818H147.967C148.407 4.63818 148.794 4.72818 149.127 4.90818C149.467 5.08152 149.731 5.32818 149.917 5.64818C150.111 5.96818 150.207 6.34818 150.207 6.78818V6.92818C150.207 7.36152 150.107 7.74152 149.907 8.06818C149.714 8.38818 149.447 8.63818 149.107 8.81818C148.774 8.99152 148.394 9.07818 147.967 9.07818H146.407V11.6382H145.087ZM146.407 7.87818H147.837C148.151 7.87818 148.404 7.79152 148.597 7.61818C148.791 7.44485 148.887 7.20818 148.887 6.90818V6.80818C148.887 6.50818 148.791 6.27152 148.597 6.09818C148.404 5.92485 148.151 5.83818 147.837 5.83818H146.407V7.87818ZM151.155 11.6382L152.995 4.63818H155.295L157.135 11.6382H155.775L155.395 10.0982H152.895L152.515 11.6382H151.155ZM153.205 8.87818H155.085L154.235 5.46818H154.055L153.205 8.87818ZM159.023 11.6382V4.63818H162.063C162.503 4.63818 162.887 4.71485 163.213 4.86818C163.54 5.02152 163.793 5.23818 163.973 5.51818C164.153 5.79818 164.243 6.12818 164.243 6.50818V6.62818C164.243 7.04818 164.143 7.38818 163.943 7.64818C163.743 7.90818 163.497 8.09818 163.203 8.21818V8.39818C163.47 8.41152 163.677 8.50485 163.823 8.67818C163.97 8.84485 164.043 9.06818 164.043 9.34818V11.6382H162.723V9.53818C162.723 9.37818 162.68 9.24818 162.593 9.14818C162.513 9.04818 162.377 8.99818 162.183 8.99818H160.343V11.6382H159.023ZM160.343 7.79818H161.923C162.237 7.79818 162.48 7.71485 162.653 7.54818C162.833 7.37485 162.923 7.14818 162.923 6.86818V6.76818C162.923 6.48818 162.837 6.26485 162.663 6.09818C162.49 5.92485 162.243 5.83818 161.923 5.83818H160.343V7.79818ZM165.912 11.6382L167.752 4.63818H170.052L171.892 11.6382H170.532L170.152 10.0982H167.652L167.272 11.6382H165.912ZM167.962 8.87818H169.842L168.992 5.46818H168.812L167.962 8.87818ZM177.051 11.6382V10.4782H177.971V5.79818H177.051V4.63818H179.931C180.871 4.63818 181.585 4.87818 182.071 5.35818C182.565 5.83152 182.811 6.53818 182.811 7.47818V8.79818C182.811 9.73818 182.565 10.4482 182.071 10.9282C181.585 11.4015 180.871 11.6382 179.931 11.6382H177.051ZM179.291 10.4382H179.951C180.485 10.4382 180.875 10.2982 181.121 10.0182C181.368 9.73818 181.491 9.34485 181.491 8.83818V7.43818C181.491 6.92485 181.368 6.53152 181.121 6.25818C180.875 5.97818 180.485 5.83818 179.951 5.83818H179.291V10.4382ZM184.962 11.6382V4.63818H189.462V5.83818H186.282V7.50818H189.182V8.70818H186.282V10.4382H189.522V11.6382H184.962ZM192.849 11.6382L191.069 4.63818H192.429L193.909 10.7882H194.049L195.529 4.63818H196.889L195.109 11.6382H192.849ZM201.132 11.7782C200.592 11.7782 200.116 11.6815 199.702 11.4882C199.289 11.2949 198.966 11.0182 198.732 10.6582C198.499 10.2982 198.382 9.86485 198.382 9.35818V9.07818H199.682V9.35818C199.682 9.77818 199.812 10.0949 200.072 10.3082C200.332 10.5149 200.686 10.6182 201.132 10.6182C201.586 10.6182 201.922 10.5282 202.142 10.3482C202.369 10.1682 202.482 9.93818 202.482 9.65818C202.482 9.46485 202.426 9.30818 202.312 9.18818C202.206 9.06818 202.046 8.97152 201.832 8.89818C201.626 8.81818 201.372 8.74485 201.072 8.67818L200.842 8.62818C200.362 8.52152 199.949 8.38818 199.602 8.22818C199.262 8.06152 198.999 7.84485 198.812 7.57818C198.632 7.31152 198.542 6.96485 198.542 6.53818C198.542 6.11152 198.642 5.74818 198.842 5.44818C199.049 5.14152 199.336 4.90818 199.702 4.74818C200.076 4.58152 200.512 4.49818 201.012 4.49818C201.512 4.49818 201.956 4.58485 202.342 4.75818C202.736 4.92485 203.042 5.17818 203.262 5.51818C203.489 5.85152 203.602 6.27152 203.602 6.77818V7.07818H202.302V6.77818C202.302 6.51152 202.249 6.29818 202.142 6.13818C202.042 5.97152 201.896 5.85152 201.702 5.77818C201.509 5.69818 201.279 5.65818 201.012 5.65818C200.612 5.65818 200.316 5.73485 200.122 5.88818C199.936 6.03485 199.842 6.23818 199.842 6.49818C199.842 6.67152 199.886 6.81818 199.972 6.93818C200.066 7.05818 200.202 7.15818 200.382 7.23818C200.562 7.31818 200.792 7.38818 201.072 7.44818L201.302 7.49818C201.802 7.60485 202.236 7.74152 202.602 7.90818C202.976 8.07485 203.266 8.29485 203.472 8.56818C203.679 8.84152 203.782 9.19152 203.782 9.61818C203.782 10.0449 203.672 10.4215 203.452 10.7482C203.239 11.0682 202.932 11.3215 202.532 11.5082C202.139 11.6882 201.672 11.7782 201.132 11.7782ZM132.461 27.6382V21.5782H132.281L131.341 23.7982H130.001L131.431 20.6382H133.741V27.6382H132.461ZM139.152 27.6382V26.2182H135.712V24.7382L138.132 20.6382H140.432V25.0782H141.592V26.2182H140.432V27.6382H139.152ZM136.932 25.0782H139.152V21.4582H138.972L136.932 24.9182V25.0782ZM146.865 25.6582V24.5182H154.385V25.6582H146.865ZM162.018 27.6382V21.5782H161.838L160.898 23.7982H159.558L160.988 20.6382H163.298V27.6382H162.018ZM168.129 27.7782C167.596 27.7782 167.132 27.6782 166.739 27.4782C166.346 27.2782 166.042 27.0015 165.829 26.6482C165.616 26.2949 165.509 25.8882 165.509 25.4282V23.0382C165.509 22.4715 165.622 22.0015 165.849 21.6282C166.082 21.2482 166.399 20.9648 166.799 20.7782C167.206 20.5915 167.669 20.4982 168.189 20.4982C168.709 20.4982 169.159 20.5848 169.539 20.7582C169.926 20.9315 170.222 21.1815 170.429 21.5082C170.642 21.8349 170.749 22.2249 170.749 22.6782H169.449C169.449 22.3982 169.352 22.1548 169.159 21.9482C168.966 21.7415 168.642 21.6382 168.189 21.6382C167.742 21.6382 167.396 21.7549 167.149 21.9882C166.909 22.2215 166.789 22.5448 166.789 22.9582V23.6782H166.969C167.082 23.5449 167.256 23.4182 167.489 23.2982C167.722 23.1782 168.062 23.1182 168.509 23.1182C168.916 23.1182 169.289 23.2049 169.629 23.3782C169.976 23.5515 170.256 23.8049 170.469 24.1382C170.682 24.4648 170.789 24.8615 170.789 25.3282V25.4482C170.789 25.9082 170.679 26.3149 170.459 26.6682C170.239 27.0149 169.929 27.2882 169.529 27.4882C169.129 27.6815 168.662 27.7782 168.129 27.7782ZM168.149 26.6382C168.569 26.6382 168.899 26.5282 169.139 26.3082C169.386 26.0882 169.509 25.7949 169.509 25.4282V25.3482C169.509 25.1015 169.452 24.8882 169.339 24.7082C169.232 24.5282 169.076 24.3882 168.869 24.2882C168.669 24.1882 168.429 24.1382 168.149 24.1382C167.876 24.1382 167.636 24.1882 167.429 24.2882C167.222 24.3882 167.062 24.5282 166.949 24.7082C166.842 24.8882 166.789 25.1015 166.789 25.3482V25.4282C166.789 25.7949 166.909 26.0882 167.149 26.3082C167.396 26.5282 167.729 26.6382 168.149 26.6382ZM175.893 27.6382L177.733 20.6382H180.033L181.873 27.6382H180.513L180.133 26.0982H177.633L177.253 27.6382H175.893ZM177.943 24.8782H179.823L178.973 21.4682H178.793L177.943 24.8782ZM186.122 27.7782C185.642 27.7782 185.205 27.6715 184.812 27.4582C184.425 27.2382 184.115 26.9215 183.882 26.5082C183.655 26.0882 183.542 25.5782 183.542 24.9782V23.2982C183.542 22.3982 183.795 21.7082 184.302 21.2282C184.808 20.7415 185.495 20.4982 186.362 20.4982C187.222 20.4982 187.885 20.7282 188.352 21.1882C188.825 21.6415 189.062 22.2582 189.062 23.0382V23.0782H187.762V22.9982C187.762 22.7515 187.708 22.5282 187.602 22.3282C187.502 22.1282 187.348 21.9715 187.142 21.8582C186.935 21.7382 186.675 21.6782 186.362 21.6782C185.895 21.6782 185.528 21.8215 185.262 22.1082C184.995 22.3948 184.862 22.7848 184.862 23.2782V24.9982C184.862 25.4849 184.995 25.8782 185.262 26.1782C185.528 26.4715 185.902 26.6182 186.382 26.6182C186.862 26.6182 187.212 26.4915 187.432 26.2382C187.652 25.9849 187.762 25.6649 187.762 25.2782V25.1782H186.102V24.0582H189.062V27.6382H187.842V26.9682H187.662C187.615 27.0815 187.538 27.2015 187.432 27.3282C187.332 27.4549 187.178 27.5615 186.972 27.6482C186.765 27.7349 186.482 27.7782 186.122 27.7782ZM194.093 27.7782C193.213 27.7782 192.513 27.5382 191.993 27.0582C191.473 26.5715 191.213 25.8782 191.213 24.9782V23.2982C191.213 22.3982 191.473 21.7082 191.993 21.2282C192.513 20.7415 193.213 20.4982 194.093 20.4982C194.973 20.4982 195.673 20.7415 196.193 21.2282C196.713 21.7082 196.973 22.3982 196.973 23.2982V24.9782C196.973 25.8782 196.713 26.5715 196.193 27.0582C195.673 27.5382 194.973 27.7782 194.093 27.7782ZM194.093 26.5982C194.586 26.5982 194.97 26.4549 195.243 26.1682C195.516 25.8815 195.653 25.4982 195.653 25.0182V23.2582C195.653 22.7782 195.516 22.3948 195.243 22.1082C194.97 21.8215 194.586 21.6782 194.093 21.6782C193.606 21.6782 193.223 21.8215 192.943 22.1082C192.67 22.3948 192.533 22.7782 192.533 23.2582V25.0182C192.533 25.4982 192.67 25.8815 192.943 26.1682C193.223 26.4549 193.606 26.5982 194.093 26.5982ZM199.825 27.7782C199.558 27.7782 199.332 27.6915 199.145 27.5182C198.965 27.3382 198.875 27.1082 198.875 26.8282C198.875 26.5482 198.965 26.3215 199.145 26.1482C199.332 25.9682 199.558 25.8782 199.825 25.8782C200.098 25.8782 200.325 25.9682 200.505 26.1482C200.685 26.3215 200.775 26.5482 200.775 26.8282C200.775 27.1082 200.685 27.3382 200.505 27.5182C200.325 27.6915 200.098 27.7782 199.825 27.7782ZM206.07 27.6382V26.7982C206.07 26.3115 206.15 25.9082 206.31 25.5882C206.47 25.2615 206.7 24.9949 207 24.7882C207.307 24.5749 207.68 24.4015 208.12 24.2682L208.79 24.0582C209.037 23.9782 209.243 23.8815 209.41 23.7682C209.577 23.6482 209.703 23.5049 209.79 23.3382C209.883 23.1715 209.93 22.9815 209.93 22.7682V22.7282C209.93 22.3949 209.817 22.1315 209.59 21.9382C209.363 21.7382 209.053 21.6382 208.66 21.6382C208.273 21.6382 207.96 21.7449 207.72 21.9582C207.487 22.1649 207.37 22.4649 207.37 22.8582V23.0382H206.09V22.8782C206.09 22.3715 206.203 21.9415 206.43 21.5882C206.657 21.2348 206.963 20.9648 207.35 20.7782C207.743 20.5915 208.18 20.4982 208.66 20.4982C209.14 20.4982 209.573 20.5915 209.96 20.7782C210.347 20.9582 210.65 21.2148 210.87 21.5482C211.097 21.8749 211.21 22.2615 211.21 22.7082V22.8082C211.21 23.2549 211.117 23.6349 210.93 23.9482C210.75 24.2549 210.503 24.5082 210.19 24.7082C209.877 24.9015 209.52 25.0615 209.12 25.1882L208.48 25.3882C208.193 25.4749 207.97 25.5715 207.81 25.6782C207.65 25.7782 207.537 25.8915 207.47 26.0182C207.41 26.1382 207.38 26.2849 207.38 26.4582V26.4982H211.15V27.6382H206.07ZM215.877 27.7782C215.051 27.7782 214.387 27.5515 213.887 27.0982C213.387 26.6382 213.137 25.9449 213.137 25.0182V23.2582C213.137 22.3582 213.387 21.6749 213.887 21.2082C214.387 20.7348 215.051 20.4982 215.877 20.4982C216.711 20.4982 217.374 20.7348 217.867 21.2082C218.367 21.6749 218.617 22.3582 218.617 23.2582V25.0182C218.617 25.9449 218.367 26.6382 217.867 27.0982C217.374 27.5515 216.711 27.7782 215.877 27.7782ZM215.877 26.6382C216.377 26.6382 216.744 26.5015 216.977 26.2282C217.217 25.9549 217.337 25.5649 217.337 25.0582V23.1982C217.337 22.6848 217.204 22.2982 216.937 22.0382C216.677 21.7715 216.324 21.6382 215.877 21.6382C215.417 21.6382 215.057 21.7749 214.797 22.0482C214.544 22.3215 214.417 22.7049 214.417 23.1982V25.0582C214.417 25.5849 214.537 25.9815 214.777 26.2482C215.024 26.5082 215.391 26.6382 215.877 26.6382ZM220.592 27.6382V26.7982C220.592 26.3115 220.672 25.9082 220.832 25.5882C220.992 25.2615 221.222 24.9949 221.522 24.7882C221.829 24.5749 222.202 24.4015 222.642 24.2682L223.312 24.0582C223.559 23.9782 223.765 23.8815 223.932 23.7682C224.099 23.6482 224.225 23.5049 224.312 23.3382C224.405 23.1715 224.452 22.9815 224.452 22.7682V22.7282C224.452 22.3949 224.339 22.1315 224.112 21.9382C223.885 21.7382 223.575 21.6382 223.182 21.6382C222.795 21.6382 222.482 21.7449 222.242 21.9582C222.009 22.1649 221.892 22.4649 221.892 22.8582V23.0382H220.612V22.8782C220.612 22.3715 220.725 21.9415 220.952 21.5882C221.179 21.2348 221.485 20.9648 221.872 20.7782C222.265 20.5915 222.702 20.4982 223.182 20.4982C223.662 20.4982 224.095 20.5915 224.482 20.7782C224.869 20.9582 225.172 21.2148 225.392 21.5482C225.619 21.8749 225.732 22.2615 225.732 22.7082V22.8082C225.732 23.2549 225.639 23.6349 225.452 23.9482C225.272 24.2549 225.025 24.5082 224.712 24.7082C224.399 24.9015 224.042 25.0615 223.642 25.1882L223.002 25.3882C222.715 25.4749 222.492 25.5715 222.332 25.6782C222.172 25.7782 222.059 25.8915 221.992 26.0182C221.932 26.1382 221.902 26.2849 221.902 26.4582V26.4982H225.672V27.6382H220.592ZM230.199 27.7782C229.673 27.7782 229.206 27.6849 228.799 27.4982C228.393 27.3115 228.073 27.0449 227.839 26.6982C227.613 26.3449 227.499 25.9282 227.499 25.4482V25.2682H228.779V25.4082C228.779 25.7815 228.909 26.0815 229.169 26.3082C229.429 26.5282 229.773 26.6382 230.199 26.6382C230.633 26.6382 230.966 26.5349 231.199 26.3282C231.439 26.1215 231.559 25.8615 231.559 25.5482V25.4482C231.559 25.2349 231.506 25.0615 231.399 24.9282C231.293 24.7949 231.149 24.6982 230.969 24.6382C230.789 24.5715 230.586 24.5382 230.359 24.5382H228.959V23.1382L231.219 21.9382V21.7782H227.679V20.6382H232.639V22.3382L230.529 23.4582V23.6182H230.899C231.213 23.6182 231.516 23.6815 231.809 23.8082C232.109 23.9349 232.356 24.1315 232.549 24.3982C232.743 24.6582 232.839 24.9982 232.839 25.4182V25.5382C232.839 25.9915 232.729 26.3882 232.509 26.7282C232.289 27.0615 231.979 27.3215 231.579 27.5082C231.186 27.6882 230.726 27.7782 230.199 27.7782ZM130.061 43.6382L131.901 36.6382H134.201L136.041 43.6382H134.681L134.301 42.0982H131.801L131.421 43.6382H130.061ZM132.111 40.8782H133.991L133.141 37.4682H132.961L132.111 40.8782ZM140.59 43.7782C139.71 43.7782 139.01 43.5382 138.49 43.0582C137.97 42.5715 137.71 41.8782 137.71 40.9782V39.2982C137.71 38.3982 137.97 37.7082 138.49 37.2282C139.01 36.7415 139.71 36.4982 140.59 36.4982C141.47 36.4982 142.17 36.7415 142.69 37.2282C143.21 37.7082 143.47 38.3982 143.47 39.2982V40.9782C143.47 41.8782 143.21 42.5715 142.69 43.0582C142.17 43.5382 141.47 43.7782 140.59 43.7782ZM140.59 42.5982C141.083 42.5982 141.467 42.4549 141.74 42.1682C142.013 41.8815 142.15 41.4982 142.15 41.0182V39.2582C142.15 38.7782 142.013 38.3948 141.74 38.1082C141.467 37.8215 141.083 37.6782 140.59 37.6782C140.103 37.6782 139.72 37.8215 139.44 38.1082C139.167 38.3948 139.03 38.7782 139.03 39.2582V41.0182C139.03 41.4982 139.167 41.8815 139.44 42.1682C139.72 42.4549 140.103 42.5982 140.59 42.5982ZM150.45 43.6382L148.67 36.6382H150.03L151.51 42.7882H151.65L153.13 36.6382H154.49L152.71 43.6382H150.45ZM156.381 43.6382V36.6382H157.701V43.6382H156.381ZM161.368 43.6382L159.588 36.6382H160.948L162.428 42.7882H162.568L164.048 36.6382H165.408L163.628 43.6382H161.368ZM169.883 43.7782C169.003 43.7782 168.303 43.5382 167.783 43.0582C167.263 42.5715 167.003 41.8782 167.003 40.9782V39.2982C167.003 38.3982 167.263 37.7082 167.783 37.2282C168.303 36.7415 169.003 36.4982 169.883 36.4982C170.763 36.4982 171.463 36.7415 171.983 37.2282C172.503 37.7082 172.763 38.3982 172.763 39.2982V40.9782C172.763 41.8782 172.503 42.5715 171.983 43.0582C171.463 43.5382 170.763 43.7782 169.883 43.7782ZM169.883 42.5982C170.376 42.5982 170.76 42.4549 171.033 42.1682C171.306 41.8815 171.443 41.4982 171.443 41.0182V39.2582C171.443 38.7782 171.306 38.3948 171.033 38.1082C170.76 37.8215 170.376 37.6782 169.883 37.6782C169.396 37.6782 169.013 37.8215 168.733 38.1082C168.46 38.3948 168.323 38.7782 168.323 39.2582V41.0182C168.323 41.4982 168.46 41.8815 168.733 42.1682C169.013 42.4549 169.396 42.5982 169.883 42.5982ZM178.316 41.6582V40.5182H185.836V41.6582H178.316ZM193.469 43.6382V37.5782H193.289L192.349 39.7982H191.009L192.439 36.6382H194.749V43.6382H193.469ZM199.46 43.7782C198.94 43.7782 198.487 43.6915 198.1 43.5182C197.72 43.3449 197.423 43.0949 197.21 42.7682C197.003 42.4415 196.9 42.0515 196.9 41.5982H198.2C198.2 41.8782 198.297 42.1215 198.49 42.3282C198.69 42.5349 199.013 42.6382 199.46 42.6382C199.913 42.6382 200.26 42.5215 200.5 42.2882C200.74 42.0482 200.86 41.7249 200.86 41.3182V40.5982H200.68C200.567 40.7315 200.393 40.8582 200.16 40.9782C199.933 41.0982 199.593 41.1582 199.14 41.1582C198.74 41.1582 198.367 41.0715 198.02 40.8982C197.673 40.7249 197.393 40.4749 197.18 40.1482C196.967 39.8149 196.86 39.4149 196.86 38.9482V38.8282C196.86 38.3615 196.97 37.9549 197.19 37.6082C197.41 37.2615 197.72 36.9915 198.12 36.7982C198.52 36.5982 198.987 36.4982 199.52 36.4982C200.053 36.4982 200.517 36.5982 200.91 36.7982C201.303 36.9982 201.607 37.2748 201.82 37.6282C202.033 37.9815 202.14 38.3882 202.14 38.8482V41.2382C202.14 41.8049 202.023 42.2782 201.79 42.6582C201.563 43.0315 201.247 43.3115 200.84 43.4982C200.44 43.6849 199.98 43.7782 199.46 43.7782ZM199.5 40.1382C199.78 40.1382 200.02 40.0882 200.22 39.9882C200.427 39.8882 200.583 39.7482 200.69 39.5682C200.803 39.3882 200.86 39.1749 200.86 38.9282V38.8482C200.86 38.4748 200.737 38.1815 200.49 37.9682C200.25 37.7482 199.92 37.6382 199.5 37.6382C199.08 37.6382 198.747 37.7482 198.5 37.9682C198.26 38.1815 198.14 38.4748 198.14 38.8482V38.9282C198.14 39.1749 198.193 39.3882 198.3 39.5682C198.413 39.7482 198.573 39.8882 198.78 39.9882C198.987 40.0882 199.227 40.1382 199.5 40.1382ZM204.352 43.6382V36.6382H205.672V39.5282H208.272V36.6382H209.592V43.6382H208.272V40.7282H205.672V43.6382H204.352Z" fill="#202024"/>
<path d="M233.881 59.0525H228.979V73.876H233.881V59.0525Z" fill="#202024"/>
<path d="M225.864 59.0525H221.11V73.876H225.864V59.0525Z" fill="#202024"/>
<path d="M217.847 59.0525H213.242V73.876H217.847V59.0525Z" fill="#202024"/>
<path d="M209.831 59.0525H205.372V73.876H209.831V59.0525Z" fill="#202024"/>
<path d="M201.81 59.0525H197.501V73.876H201.81V59.0525Z" fill="#202024"/>
<path d="M193.797 59.0525H189.634V73.876H193.797V59.0525Z" fill="#202024"/>
<path d="M185.777 59.0525H181.763V73.876H185.777V59.0525Z" fill="#202024"/>
<path d="M177.76 59.0525H173.893V73.876H177.76V59.0525Z" fill="#202024"/>
<path d="M169.74 59.0525H166.023V73.876H169.74V59.0525Z" fill="#202024"/>
<path d="M161.727 59.0525H158.156V73.876H161.727V59.0525Z" fill="#202024"/>
<path d="M153.707 59.0525H150.285V73.876H153.707V59.0525Z" fill="#202024"/>
<path d="M145.69 59.0525H142.415V73.876H145.69V59.0525Z" fill="#202024"/>
<path d="M137.673 59.0525H134.548V73.876H137.673V59.0525Z" fill="#202024"/>
<path d="M129.656 59.0525H126.677V73.876H129.656V59.0525Z" fill="#202024"/>
<path d="M121.636 59.0525H118.807V73.876H121.636V59.0525Z" fill="#202024"/>
<path d="M113.623 59.0525H110.939V73.876H113.623V59.0525Z" fill="#202024"/>
<path d="M105.603 59.0525H103.069V73.876H105.603V59.0525Z" fill="#202024"/>
<path d="M97.5857 59.0525H95.1985V73.876H97.5857V59.0525Z" fill="#202024"/>
<path d="M89.5723 59.0525H87.3314V73.876H89.5723V59.0525Z" fill="#202024"/>
<path d="M81.5517 59.0525H79.4606V73.876H81.5517V59.0525Z" fill="#202024"/>
<path d="M73.5357 59.0525H71.5908V73.876H73.5357V59.0525Z" fill="#202024"/>
<path d="M65.5185 59.0525H63.7233V73.876H65.5185V59.0525Z" fill="#202024"/>
<path d="M57.5018 59.0525H55.8529V73.876H57.5018V59.0525Z" fill="#202024"/>
<path d="M49.482 59.0525H47.9827V73.876H49.482V59.0525Z" fill="#202024"/>
<path d="M41.4684 59.0525H40.1155V73.876H41.4684V59.0525Z" fill="#202024"/>
<path d="M33.4481 59.0525H32.2448V73.876H33.4481V59.0525Z" fill="#202024"/>
<path d="M25.4315 59.0525H24.3745V73.876H25.4315V59.0525Z" fill="#202024"/>
<path d="M17.4147 59.0525H16.5073V73.876H17.4147V59.0525Z" fill="#202024"/>
<path d="M9.39814 59.0525H8.63708V73.876H9.39814V59.0525Z" fill="#202024"/>
<path d="M1.37786 59.0525H0.766479V73.876H1.37786V59.0525Z" fill="#202024"/>
</svg>
